<svg width="230" height="230" viewBox="0 0 230 230" fill="none" xmlns="http://www.w3.org/2000/svg">
<g clip-path="url(#clip0_398_62852)">
<path d="M230 0H0V230H230V0Z" fill="white"/>
<path d="M68.3783 12.4326H62.1621V18.6488H68.3783V12.4326Z" fill="black"/>
<path d="M74.5945 12.4326H68.3783V18.6488H74.5945V12.4326Z" fill="black"/>
<path d="M80.8107 12.4326H74.5945V18.6488H80.8107V12.4326Z" fill="black"/>
<path d="M93.2432 12.4326H87.027V18.6488H93.2432V12.4326Z" fill="black"/>
<path d="M105.676 12.4326H99.4594V18.6488H105.676V12.4326Z" fill="black"/>
<path d="M124.324 12.4326H118.108V18.6488H124.324V12.4326Z" fill="black"/>
<path d="M130.54 12.4326H124.324V18.6488H130.54V12.4326Z" fill="black"/>
<path d="M136.757 12.4326H130.541V18.6488H136.757V12.4326Z" fill="black"/>
<path d="M149.189 12.4326H142.973V18.6488H149.189V12.4326Z" fill="black"/>
<path d="M161.622 12.4326H155.405V18.6488H161.622V12.4326Z" fill="black"/>
<path d="M167.838 12.4326H161.622V18.6488H167.838V12.4326Z" fill="black"/>
<path d="M68.3783 18.6484H62.1621V24.8647H68.3783V18.6484Z" fill="black"/>
<path d="M74.5945 18.6484H68.3783V24.8647H74.5945V18.6484Z" fill="black"/>
<path d="M87.027 18.6484H80.8108V24.8647H87.027V18.6484Z" fill="black"/>
<path d="M105.676 18.6484H99.4594V24.8647H105.676V18.6484Z" fill="black"/>
<path d="M111.892 18.6484H105.676V24.8647H111.892V18.6484Z" fill="black"/>
<path d="M118.108 18.6484H111.892V24.8647H118.108V18.6484Z" fill="black"/>
<path d="M136.757 18.6484H130.541V24.8647H136.757V18.6484Z" fill="black"/>
<path d="M149.189 18.6484H142.973V24.8647H149.189V18.6484Z" fill="black"/>
<path d="M155.405 18.6484H149.189V24.8647H155.405V18.6484Z" fill="black"/>
<path d="M167.838 18.6484H161.622V24.8647H167.838V18.6484Z" fill="black"/>
<path d="M68.3783 24.8652H62.1621V31.0815H68.3783V24.8652Z" fill="black"/>
<path d="M74.5945 24.8652H68.3783V31.0815H74.5945V24.8652Z" fill="black"/>
<path d="M80.8107 24.8652H74.5945V31.0815H80.8107V24.8652Z" fill="black"/>
<path d="M93.2432 24.8652H87.027V31.0815H93.2432V24.8652Z" fill="black"/>
<path d="M105.676 24.8652H99.4594V31.0815H105.676V24.8652Z" fill="black"/>
<path d="M124.324 24.8652H118.108V31.0815H124.324V24.8652Z" fill="black"/>
<path d="M142.973 24.8652H136.757V31.0815H142.973V24.8652Z" fill="black"/>
<path d="M149.189 24.8652H142.973V31.0815H149.189V24.8652Z" fill="black"/>
<path d="M155.405 24.8652H149.189V31.0815H155.405V24.8652Z" fill="black"/>
<path d="M161.622 24.8652H155.405V31.0815H161.622V24.8652Z" fill="black"/>
<path d="M167.838 24.8652H161.622V31.0815H167.838V24.8652Z" fill="black"/>
<path d="M74.5945 31.0811H68.3783V37.2973H74.5945V31.0811Z" fill="black"/>
<path d="M80.8107 31.0811H74.5945V37.2973H80.8107V31.0811Z" fill="black"/>
<path d="M105.676 31.0811H99.4594V37.2973H105.676V31.0811Z" fill="black"/>
<path d="M118.108 31.0811H111.892V37.2973H118.108V31.0811Z" fill="black"/>
<path d="M136.757 31.0811H130.541V37.2973H136.757V31.0811Z" fill="black"/>
<path d="M155.405 31.0811H149.189V37.2973H155.405V31.0811Z" fill="black"/>
<path d="M161.622 31.0811H155.405V37.2973H161.622V31.0811Z" fill="black"/>
<path d="M167.838 31.0811H161.622V37.2973H167.838V31.0811Z" fill="black"/>
<path d="M93.2432 37.2979H87.027V43.5141H93.2432V37.2979Z" fill="black"/>
<path d="M99.4594 37.2979H93.2432V43.5141H99.4594V37.2979Z" fill="black"/>
<path d="M105.676 37.2979H99.4594V43.5141H105.676V37.2979Z" fill="black"/>
<path d="M124.324 37.2979H118.108V43.5141H124.324V37.2979Z" fill="black"/>
<path d="M149.189 37.2979H142.973V43.5141H149.189V37.2979Z" fill="black"/>
<path d="M155.405 37.2979H149.189V43.5141H155.405V37.2979Z" fill="black"/>
<path d="M161.622 37.2979H155.405V43.5141H161.622V37.2979Z" fill="black"/>
<path d="M167.838 37.2979H161.622V43.5141H167.838V37.2979Z" fill="black"/>
<path d="M68.3783 43.5137H62.1621V49.7299H68.3783V43.5137Z" fill="black"/>
<path d="M80.8107 43.5137H74.5945V49.7299H80.8107V43.5137Z" fill="black"/>
<path d="M87.027 43.5137H80.8108V49.7299H87.027V43.5137Z" fill="black"/>
<path d="M105.676 43.5137H99.4594V49.7299H105.676V43.5137Z" fill="black"/>
<path d="M124.324 43.5137H118.108V49.7299H124.324V43.5137Z" fill="black"/>
<path d="M136.757 43.5137H130.541V49.7299H136.757V43.5137Z" fill="black"/>
<path d="M155.405 43.5137H149.189V49.7299H155.405V43.5137Z" fill="black"/>
<path d="M68.3783 49.7295H62.1621V55.9457H68.3783V49.7295Z" fill="black"/>
<path d="M80.8107 49.7295H74.5945V55.9457H80.8107V49.7295Z" fill="black"/>
<path d="M93.2432 49.7295H87.027V55.9457H93.2432V49.7295Z" fill="black"/>
<path d="M105.676 49.7295H99.4594V55.9457H105.676V49.7295Z" fill="black"/>
<path d="M118.108 49.7295H111.892V55.9457H118.108V49.7295Z" fill="black"/>
<path d="M130.54 49.7295H124.324V55.9457H130.54V49.7295Z" fill="black"/>
<path d="M142.973 49.7295H136.757V55.9457H142.973V49.7295Z" fill="black"/>
<path d="M155.405 49.7295H149.189V55.9457H155.405V49.7295Z" fill="black"/>
<path d="M167.838 49.7295H161.622V55.9457H167.838V49.7295Z" fill="black"/>
<path d="M68.3783 55.9463H62.1621V62.1625H68.3783V55.9463Z" fill="black"/>
<path d="M74.5945 55.9463H68.3783V62.1625H74.5945V55.9463Z" fill="black"/>
<path d="M80.8107 55.9463H74.5945V62.1625H80.8107V55.9463Z" fill="black"/>
<path d="M99.4594 55.9463H93.2432V62.1625H99.4594V55.9463Z" fill="black"/>
<path d="M111.892 55.9463H105.676V62.1625H111.892V55.9463Z" fill="black"/>
<path d="M124.324 55.9463H118.108V62.1625H124.324V55.9463Z" fill="black"/>
<path d="M130.54 55.9463H124.324V62.1625H130.54V55.9463Z" fill="black"/>
<path d="M136.757 55.9463H130.541V62.1625H136.757V55.9463Z" fill="black"/>
<path d="M142.973 55.9463H136.757V62.1625H142.973V55.9463Z" fill="black"/>
<path d="M149.189 55.9463H142.973V62.1625H149.189V55.9463Z" fill="black"/>
<path d="M155.405 55.9463H149.189V62.1625H155.405V55.9463Z" fill="black"/>
<path d="M31.081 62.1621H24.8647V68.3783H31.081V62.1621Z" fill="black"/>
<path d="M37.2973 62.1621H31.0811V68.3783H37.2973V62.1621Z" fill="black"/>
<path d="M43.5135 62.1621H37.2972V68.3783H43.5135V62.1621Z" fill="black"/>
<path d="M55.9458 62.1621H49.7296V68.3783H55.9458V62.1621Z" fill="black"/>
<path d="M68.3783 62.1621H62.1621V68.3783H68.3783V62.1621Z" fill="black"/>
<path d="M87.027 62.1621H80.8108V68.3783H87.027V62.1621Z" fill="black"/>
<path d="M93.2432 62.1621H87.027V68.3783H93.2432V62.1621Z" fill="black"/>
<path d="M105.676 62.1621H99.4594V68.3783H105.676V62.1621Z" fill="black"/>
<path d="M111.892 62.1621H105.676V68.3783H111.892V62.1621Z" fill="black"/>
<path d="M130.54 62.1621H124.324V68.3783H130.54V62.1621Z" fill="black"/>
<path d="M155.405 62.1621H149.189V68.3783H155.405V62.1621Z" fill="black"/>
<path d="M161.622 62.1621H155.405V68.3783H161.622V62.1621Z" fill="black"/>
<path d="M167.838 62.1621H161.622V68.3783H167.838V62.1621Z" fill="black"/>
<path d="M174.054 62.1621H167.838V68.3783H174.054V62.1621Z" fill="black"/>
<path d="M180.27 62.1621H174.054V68.3783H180.27V62.1621Z" fill="black"/>
<path d="M186.486 62.1621H180.27V68.3783H186.486V62.1621Z" fill="black"/>
<path d="M205.135 62.1621H198.919V68.3783H205.135V62.1621Z" fill="black"/>
<path d="M211.351 62.1621H205.135V68.3783H211.351V62.1621Z" fill="black"/>
<path d="M217.568 62.1621H211.351V68.3783H217.568V62.1621Z" fill="black"/>
<path d="M24.8648 68.3789H18.6486V74.5951H24.8648V68.3789Z" fill="black"/>
<path d="M37.2973 68.3789H31.0811V74.5951H37.2973V68.3789Z" fill="black"/>
<path d="M62.1621 68.3789H55.9459V74.5951H62.1621V68.3789Z" fill="black"/>
<path d="M68.3783 68.3789H62.1621V74.5951H68.3783V68.3789Z" fill="black"/>
<path d="M80.8107 68.3789H74.5945V74.5951H80.8107V68.3789Z" fill="black"/>
<path d="M99.4594 68.3789H93.2432V74.5951H99.4594V68.3789Z" fill="black"/>
<path d="M105.676 68.3789H99.4594V74.5951H105.676V68.3789Z" fill="black"/>
<path d="M130.54 68.3789H124.324V74.5951H130.54V68.3789Z" fill="black"/>
<path d="M155.405 68.3789H149.189V74.5951H155.405V68.3789Z" fill="black"/>
<path d="M161.622 68.3789H155.405V74.5951H161.622V68.3789Z" fill="black"/>
<path d="M174.054 68.3789H167.838V74.5951H174.054V68.3789Z" fill="black"/>
<path d="M180.27 68.3789H174.054V74.5951H180.27V68.3789Z" fill="black"/>
<path d="M205.135 68.3789H198.919V74.5951H205.135V68.3789Z" fill="black"/>
<path d="M211.351 68.3789H205.135V74.5951H211.351V68.3789Z" fill="black"/>
<path d="M217.568 68.3789H211.351V74.5951H217.568V68.3789Z" fill="black"/>
<path d="M18.6486 74.5947H12.4324V80.8109H18.6486V74.5947Z" fill="black"/>
<path d="M31.081 74.5947H24.8647V80.8109H31.081V74.5947Z" fill="black"/>
<path d="M37.2973 74.5947H31.0811V80.8109H37.2973V74.5947Z" fill="black"/>
<path d="M43.5135 74.5947H37.2972V80.8109H43.5135V74.5947Z" fill="black"/>
<path d="M49.7296 74.5947H43.5134V80.8109H49.7296V74.5947Z" fill="black"/>
<path d="M55.9458 74.5947H49.7296V80.8109H55.9458V74.5947Z" fill="black"/>
<path d="M74.5945 74.5947H68.3783V80.8109H74.5945V74.5947Z" fill="black"/>
<path d="M80.8107 74.5947H74.5945V80.8109H80.8107V74.5947Z" fill="black"/>
<path d="M87.027 74.5947H80.8108V80.8109H87.027V74.5947Z" fill="black"/>
<path d="M111.892 74.5947H105.676V80.8109H111.892V74.5947Z" fill="black"/>
<path d="M155.405 74.5947H149.189V80.8109H155.405V74.5947Z" fill="black"/>
<path d="M167.838 74.5947H161.622V80.8109H167.838V74.5947Z" fill="black"/>
<path d="M174.054 74.5947H167.838V80.8109H174.054V74.5947Z" fill="black"/>
<path d="M180.27 74.5947H174.054V80.8109H180.27V74.5947Z" fill="black"/>
<path d="M186.486 74.5947H180.27V80.8109H186.486V74.5947Z" fill="black"/>
<path d="M198.919 74.5947H192.703V80.8109H198.919V74.5947Z" fill="black"/>
<path d="M205.135 74.5947H198.919V80.8109H205.135V74.5947Z" fill="black"/>
<path d="M211.351 74.5947H205.135V80.8109H211.351V74.5947Z" fill="black"/>
<path d="M18.6486 80.8105H12.4324V87.0268H18.6486V80.8105Z" fill="black"/>
<path d="M49.7296 80.8105H43.5134V87.0268H49.7296V80.8105Z" fill="black"/>
<path d="M62.1621 80.8105H55.9459V87.0268H62.1621V80.8105Z" fill="black"/>
<path d="M74.5945 80.8105H68.3783V87.0268H74.5945V80.8105Z" fill="black"/>
<path d="M99.4594 80.8105H93.2432V87.0268H99.4594V80.8105Z" fill="black"/>
<path d="M111.892 80.8105H105.676V87.0268H111.892V80.8105Z" fill="black"/>
<path d="M130.54 80.8105H124.324V87.0268H130.54V80.8105Z" fill="black"/>
<path d="M149.189 80.8105H142.973V87.0268H149.189V80.8105Z" fill="black"/>
<path d="M155.405 80.8105H149.189V87.0268H155.405V80.8105Z" fill="black"/>
<path d="M161.622 80.8105H155.405V87.0268H161.622V80.8105Z" fill="black"/>
<path d="M167.838 80.8105H161.622V87.0268H167.838V80.8105Z" fill="black"/>
<path d="M180.27 80.8105H174.054V87.0268H180.27V80.8105Z" fill="black"/>
<path d="M198.919 80.8105H192.703V87.0268H198.919V80.8105Z" fill="black"/>
<path d="M205.135 80.8105H198.919V87.0268H205.135V80.8105Z" fill="black"/>
<path d="M211.351 80.8105H205.135V87.0268H211.351V80.8105Z" fill="black"/>
<path d="M217.568 80.8105H211.351V87.0268H217.568V80.8105Z" fill="black"/>
<path d="M18.6486 87.0273H12.4324V93.2436H18.6486V87.0273Z" fill="black"/>
<path d="M24.8648 87.0273H18.6486V93.2436H24.8648V87.0273Z" fill="black"/>
<path d="M31.081 87.0273H24.8647V93.2436H31.081V87.0273Z" fill="black"/>
<path d="M49.7296 87.0273H43.5134V93.2436H49.7296V87.0273Z" fill="black"/>
<path d="M55.9458 87.0273H49.7296V93.2436H55.9458V87.0273Z" fill="black"/>
<path d="M68.3783 87.0273H62.1621V93.2436H68.3783V87.0273Z" fill="black"/>
<path d="M80.8107 87.0273H74.5945V93.2436H80.8107V87.0273Z" fill="black"/>
<path d="M93.2432 87.0273H87.027V93.2436H93.2432V87.0273Z" fill="black"/>
<path d="M99.4594 87.0273H93.2432V93.2436H99.4594V87.0273Z" fill="black"/>
<path d="M105.676 87.0273H99.4594V93.2436H105.676V87.0273Z" fill="black"/>
<path d="M111.892 87.0273H105.676V93.2436H111.892V87.0273Z" fill="black"/>
<path d="M118.108 87.0273H111.892V93.2436H118.108V87.0273Z" fill="black"/>
<path d="M136.757 87.0273H130.541V93.2436H136.757V87.0273Z" fill="black"/>
<path d="M149.189 87.0273H142.973V93.2436H149.189V87.0273Z" fill="black"/>
<path d="M174.054 87.0273H167.838V93.2436H174.054V87.0273Z" fill="black"/>
<path d="M186.486 87.0273H180.27V93.2436H186.486V87.0273Z" fill="black"/>
<path d="M192.703 87.0273H186.486V93.2436H192.703V87.0273Z" fill="black"/>
<path d="M211.351 87.0273H205.135V93.2436H211.351V87.0273Z" fill="black"/>
<path d="M18.6486 93.2432H12.4324V99.4594H18.6486V93.2432Z" fill="black"/>
<path d="M62.1621 93.2432H55.9459V99.4594H62.1621V93.2432Z" fill="black"/>
<path d="M74.5945 93.2432H68.3783V99.4594H74.5945V93.2432Z" fill="black"/>
<path d="M80.8107 93.2432H74.5945V99.4594H80.8107V93.2432Z" fill="black"/>
<path d="M93.2432 93.2432H87.027V99.4594H93.2432V93.2432Z" fill="black"/>
<path d="M105.676 93.2432H99.4594V99.4594H105.676V93.2432Z" fill="black"/>
<path d="M118.108 93.2432H111.892V99.4594H118.108V93.2432Z" fill="black"/>
<path d="M142.973 93.2432H136.757V99.4594H142.973V93.2432Z" fill="black"/>
<path d="M161.622 93.2432H155.405V99.4594H161.622V93.2432Z" fill="black"/>
<path d="M174.054 93.2432H167.838V99.4594H174.054V93.2432Z" fill="black"/>
<path d="M180.27 93.2432H174.054V99.4594H180.27V93.2432Z" fill="black"/>
<path d="M198.919 93.2432H192.703V99.4594H198.919V93.2432Z" fill="black"/>
<path d="M205.135 93.2432H198.919V99.4594H205.135V93.2432Z" fill="black"/>
<path d="M217.568 93.2432H211.351V99.4594H217.568V93.2432Z" fill="black"/>
<path d="M18.6486 99.46H12.4324V105.676H18.6486V99.46Z" fill="black"/>
<path d="M24.8648 99.46H18.6486V105.676H24.8648V99.46Z" fill="black"/>
<path d="M31.081 99.46H24.8647V105.676H31.081V99.46Z" fill="black"/>
<path d="M43.5135 99.46H37.2972V105.676H43.5135V99.46Z" fill="black"/>
<path d="M55.9458 99.46H49.7296V105.676H55.9458V99.46Z" fill="black"/>
<path d="M62.1621 99.46H55.9459V105.676H62.1621V99.46Z" fill="black"/>
<path d="M68.3783 99.46H62.1621V105.676H68.3783V99.46Z" fill="black"/>
<path d="M74.5945 99.46H68.3783V105.676H74.5945V99.46Z" fill="black"/>
<path d="M87.027 99.46H80.8108V105.676H87.027V99.46Z" fill="black"/>
<path d="M93.2432 99.46H87.027V105.676H93.2432V99.46Z" fill="black"/>
<path d="M99.4594 99.46H93.2432V105.676H99.4594V99.46Z" fill="black"/>
<path d="M105.676 99.46H99.4594V105.676H105.676V99.46Z" fill="black"/>
<path d="M118.108 99.46H111.892V105.676H118.108V99.46Z" fill="black"/>
<path d="M130.54 99.46H124.324V105.676H130.54V99.46Z" fill="black"/>
<path d="M142.973 99.46H136.757V105.676H142.973V99.46Z" fill="black"/>
<path d="M155.405 99.46H149.189V105.676H155.405V99.46Z" fill="black"/>
<path d="M167.838 99.46H161.622V105.676H167.838V99.46Z" fill="black"/>
<path d="M180.27 99.46H174.054V105.676H180.27V99.46Z" fill="black"/>
<path d="M186.486 99.46H180.27V105.676H186.486V99.46Z" fill="black"/>
<path d="M192.703 99.46H186.486V105.676H192.703V99.46Z" fill="black"/>
<path d="M198.919 99.46H192.703V105.676H198.919V99.46Z" fill="black"/>
<path d="M205.135 99.46H198.919V105.676H205.135V99.46Z" fill="black"/>
<path d="M211.351 99.46H205.135V105.676H211.351V99.46Z" fill="black"/>
<path d="M18.6486 105.676H12.4324V111.892H18.6486V105.676Z" fill="black"/>
<path d="M37.2973 105.676H31.0811V111.892H37.2973V105.676Z" fill="black"/>
<path d="M49.7296 105.676H43.5134V111.892H49.7296V105.676Z" fill="black"/>
<path d="M74.5945 105.676H68.3783V111.892H74.5945V105.676Z" fill="black"/>
<path d="M80.8107 105.676H74.5945V111.892H80.8107V105.676Z" fill="black"/>
<path d="M87.027 105.676H80.8108V111.892H87.027V105.676Z" fill="black"/>
<path d="M93.2432 105.676H87.027V111.892H93.2432V105.676Z" fill="black"/>
<path d="M105.676 105.676H99.4594V111.892H105.676V105.676Z" fill="black"/>
<path d="M118.108 105.676H111.892V111.892H118.108V105.676Z" fill="black"/>
<path d="M124.324 105.676H118.108V111.892H124.324V105.676Z" fill="black"/>
<path d="M130.54 105.676H124.324V111.892H130.54V105.676Z" fill="black"/>
<path d="M142.973 105.676H136.757V111.892H142.973V105.676Z" fill="black"/>
<path d="M149.189 105.676H142.973V111.892H149.189V105.676Z" fill="black"/>
<path d="M155.405 105.676H149.189V111.892H155.405V105.676Z" fill="black"/>
<path d="M161.622 105.676H155.405V111.892H161.622V105.676Z" fill="black"/>
<path d="M167.838 105.676H161.622V111.892H167.838V105.676Z" fill="black"/>
<path d="M192.703 105.676H186.486V111.892H192.703V105.676Z" fill="black"/>
<path d="M198.919 105.676H192.703V111.892H198.919V105.676Z" fill="black"/>
<path d="M205.135 105.676H198.919V111.892H205.135V105.676Z" fill="black"/>
<path d="M211.351 105.676H205.135V111.892H211.351V105.676Z" fill="black"/>
<path d="M18.6486 111.892H12.4324V118.108H18.6486V111.892Z" fill="black"/>
<path d="M43.5135 111.892H37.2972V118.108H43.5135V111.892Z" fill="black"/>
<path d="M55.9458 111.892H49.7296V118.108H55.9458V111.892Z" fill="black"/>
<path d="M68.3783 111.892H62.1621V118.108H68.3783V111.892Z" fill="black"/>
<path d="M80.8107 111.892H74.5945V118.108H80.8107V111.892Z" fill="black"/>
<path d="M87.027 111.892H80.8108V118.108H87.027V111.892Z" fill="black"/>
<path d="M99.4594 111.892H93.2432V118.108H99.4594V111.892Z" fill="black"/>
<path d="M105.676 111.892H99.4594V118.108H105.676V111.892Z" fill="black"/>
<path d="M118.108 111.892H111.892V118.108H118.108V111.892Z" fill="black"/>
<path d="M130.54 111.892H124.324V118.108H130.54V111.892Z" fill="black"/>
<path d="M136.757 111.892H130.541V118.108H136.757V111.892Z" fill="black"/>
<path d="M174.054 111.892H167.838V118.108H174.054V111.892Z" fill="black"/>
<path d="M186.486 111.892H180.27V118.108H186.486V111.892Z" fill="black"/>
<path d="M192.703 111.892H186.486V118.108H192.703V111.892Z" fill="black"/>
<path d="M198.919 111.892H192.703V118.108H198.919V111.892Z" fill="black"/>
<path d="M18.6486 118.108H12.4324V124.325H18.6486V118.108Z" fill="black"/>
<path d="M24.8648 118.108H18.6486V124.325H24.8648V118.108Z" fill="black"/>
<path d="M31.081 118.108H24.8647V124.325H31.081V118.108Z" fill="black"/>
<path d="M37.2973 118.108H31.0811V124.325H37.2973V118.108Z" fill="black"/>
<path d="M68.3783 118.108H62.1621V124.325H68.3783V118.108Z" fill="black"/>
<path d="M105.676 118.108H99.4594V124.325H105.676V118.108Z" fill="black"/>
<path d="M118.108 118.108H111.892V124.325H118.108V118.108Z" fill="black"/>
<path d="M130.54 118.108H124.324V124.325H130.54V118.108Z" fill="black"/>
<path d="M136.757 118.108H130.541V124.325H136.757V118.108Z" fill="black"/>
<path d="M149.189 118.108H142.973V124.325H149.189V118.108Z" fill="black"/>
<path d="M161.622 118.108H155.405V124.325H161.622V118.108Z" fill="black"/>
<path d="M167.838 118.108H161.622V124.325H167.838V118.108Z" fill="black"/>
<path d="M180.27 118.108H174.054V124.325H180.27V118.108Z" fill="black"/>
<path d="M211.351 118.108H205.135V124.325H211.351V118.108Z" fill="black"/>
<path d="M217.568 118.108H211.351V124.325H217.568V118.108Z" fill="black"/>
<path d="M31.081 124.324H24.8647V130.54H31.081V124.324Z" fill="black"/>
<path d="M43.5135 124.324H37.2972V130.54H43.5135V124.324Z" fill="black"/>
<path d="M49.7296 124.324H43.5134V130.54H49.7296V124.324Z" fill="black"/>
<path d="M55.9458 124.324H49.7296V130.54H55.9458V124.324Z" fill="black"/>
<path d="M62.1621 124.324H55.9459V130.54H62.1621V124.324Z" fill="black"/>
<path d="M68.3783 124.324H62.1621V130.54H68.3783V124.324Z" fill="black"/>
<path d="M80.8107 124.324H74.5945V130.54H80.8107V124.324Z" fill="black"/>
<path d="M93.2432 124.324H87.027V130.54H93.2432V124.324Z" fill="black"/>
<path d="M105.676 124.324H99.4594V130.54H105.676V124.324Z" fill="black"/>
<path d="M111.892 124.324H105.676V130.54H111.892V124.324Z" fill="black"/>
<path d="M124.324 124.324H118.108V130.54H124.324V124.324Z" fill="black"/>
<path d="M142.973 124.324H136.757V130.54H142.973V124.324Z" fill="black"/>
<path d="M192.703 124.324H186.486V130.54H192.703V124.324Z" fill="black"/>
<path d="M205.135 124.324H198.919V130.54H205.135V124.324Z" fill="black"/>
<path d="M211.351 124.324H205.135V130.54H211.351V124.324Z" fill="black"/>
<path d="M31.081 130.541H24.8647V136.757H31.081V130.541Z" fill="black"/>
<path d="M37.2973 130.541H31.0811V136.757H37.2973V130.541Z" fill="black"/>
<path d="M49.7296 130.541H43.5134V136.757H49.7296V130.541Z" fill="black"/>
<path d="M62.1621 130.541H55.9459V136.757H62.1621V130.541Z" fill="black"/>
<path d="M80.8107 130.541H74.5945V136.757H80.8107V130.541Z" fill="black"/>
<path d="M93.2432 130.541H87.027V136.757H93.2432V130.541Z" fill="black"/>
<path d="M99.4594 130.541H93.2432V136.757H99.4594V130.541Z" fill="black"/>
<path d="M124.324 130.541H118.108V136.757H124.324V130.541Z" fill="black"/>
<path d="M130.54 130.541H124.324V136.757H130.54V130.541Z" fill="black"/>
<path d="M136.757 130.541H130.541V136.757H136.757V130.541Z" fill="black"/>
<path d="M142.973 130.541H136.757V136.757H142.973V130.541Z" fill="black"/>
<path d="M149.189 130.541H142.973V136.757H149.189V130.541Z" fill="black"/>
<path d="M155.405 130.541H149.189V136.757H155.405V130.541Z" fill="black"/>
<path d="M161.622 130.541H155.405V136.757H161.622V130.541Z" fill="black"/>
<path d="M167.838 130.541H161.622V136.757H167.838V130.541Z" fill="black"/>
<path d="M174.054 130.541H167.838V136.757H174.054V130.541Z" fill="black"/>
<path d="M180.27 130.541H174.054V136.757H180.27V130.541Z" fill="black"/>
<path d="M186.486 130.541H180.27V136.757H186.486V130.541Z" fill="black"/>
<path d="M198.919 130.541H192.703V136.757H198.919V130.541Z" fill="black"/>
<path d="M205.135 130.541H198.919V136.757H205.135V130.541Z" fill="black"/>
<path d="M211.351 130.541H205.135V136.757H211.351V130.541Z" fill="black"/>
<path d="M217.568 130.541H211.351V136.757H217.568V130.541Z" fill="black"/>
<path d="M43.5135 136.757H37.2972V142.973H43.5135V136.757Z" fill="black"/>
<path d="M55.9458 136.757H49.7296V142.973H55.9458V136.757Z" fill="black"/>
<path d="M68.3783 136.757H62.1621V142.973H68.3783V136.757Z" fill="black"/>
<path d="M74.5945 136.757H68.3783V142.973H74.5945V136.757Z" fill="black"/>
<path d="M87.027 136.757H80.8108V142.973H87.027V136.757Z" fill="black"/>
<path d="M93.2432 136.757H87.027V142.973H93.2432V136.757Z" fill="black"/>
<path d="M111.892 136.757H105.676V142.973H111.892V136.757Z" fill="black"/>
<path d="M136.757 136.757H130.541V142.973H136.757V136.757Z" fill="black"/>
<path d="M142.973 136.757H136.757V142.973H142.973V136.757Z" fill="black"/>
<path d="M155.405 136.757H149.189V142.973H155.405V136.757Z" fill="black"/>
<path d="M167.838 136.757H161.622V142.973H167.838V136.757Z" fill="black"/>
<path d="M174.054 136.757H167.838V142.973H174.054V136.757Z" fill="black"/>
<path d="M186.486 136.757H180.27V142.973H186.486V136.757Z" fill="black"/>
<path d="M192.703 136.757H186.486V142.973H192.703V136.757Z" fill="black"/>
<path d="M198.919 136.757H192.703V142.973H198.919V136.757Z" fill="black"/>
<path d="M211.351 136.757H205.135V142.973H211.351V136.757Z" fill="black"/>
<path d="M217.568 136.757H211.351V142.973H217.568V136.757Z" fill="black"/>
<path d="M18.6486 142.974H12.4324V149.19H18.6486V142.974Z" fill="black"/>
<path d="M24.8648 142.974H18.6486V149.19H24.8648V142.974Z" fill="black"/>
<path d="M31.081 142.974H24.8647V149.19H31.081V142.974Z" fill="black"/>
<path d="M37.2973 142.974H31.0811V149.19H37.2973V142.974Z" fill="black"/>
<path d="M49.7296 142.974H43.5134V149.19H49.7296V142.974Z" fill="black"/>
<path d="M62.1621 142.974H55.9459V149.19H62.1621V142.974Z" fill="black"/>
<path d="M74.5945 142.974H68.3783V149.19H74.5945V142.974Z" fill="black"/>
<path d="M80.8107 142.974H74.5945V149.19H80.8107V142.974Z" fill="black"/>
<path d="M87.027 142.974H80.8108V149.19H87.027V142.974Z" fill="black"/>
<path d="M105.676 142.974H99.4594V149.19H105.676V142.974Z" fill="black"/>
<path d="M118.108 142.974H111.892V149.19H118.108V142.974Z" fill="black"/>
<path d="M130.54 142.974H124.324V149.19H130.54V142.974Z" fill="black"/>
<path d="M149.189 142.974H142.973V149.19H149.189V142.974Z" fill="black"/>
<path d="M155.405 142.974H149.189V149.19H155.405V142.974Z" fill="black"/>
<path d="M161.622 142.974H155.405V149.19H161.622V142.974Z" fill="black"/>
<path d="M180.27 142.974H174.054V149.19H180.27V142.974Z" fill="black"/>
<path d="M186.486 142.974H180.27V149.19H186.486V142.974Z" fill="black"/>
<path d="M198.919 142.974H192.703V149.19H198.919V142.974Z" fill="black"/>
<path d="M205.135 142.974H198.919V149.19H205.135V142.974Z" fill="black"/>
<path d="M217.568 142.974H211.351V149.19H217.568V142.974Z" fill="black"/>
<path d="M18.6486 149.189H12.4324V155.406H18.6486V149.189Z" fill="black"/>
<path d="M31.081 149.189H24.8647V155.406H31.081V149.189Z" fill="black"/>
<path d="M37.2973 149.189H31.0811V155.406H37.2973V149.189Z" fill="black"/>
<path d="M49.7296 149.189H43.5134V155.406H49.7296V149.189Z" fill="black"/>
<path d="M55.9458 149.189H49.7296V155.406H55.9458V149.189Z" fill="black"/>
<path d="M68.3783 149.189H62.1621V155.406H68.3783V149.189Z" fill="black"/>
<path d="M74.5945 149.189H68.3783V155.406H74.5945V149.189Z" fill="black"/>
<path d="M87.027 149.189H80.8108V155.406H87.027V149.189Z" fill="black"/>
<path d="M99.4594 149.189H93.2432V155.406H99.4594V149.189Z" fill="black"/>
<path d="M105.676 149.189H99.4594V155.406H105.676V149.189Z" fill="black"/>
<path d="M111.892 149.189H105.676V155.406H111.892V149.189Z" fill="black"/>
<path d="M130.54 149.189H124.324V155.406H130.54V149.189Z" fill="black"/>
<path d="M192.703 149.189H186.486V155.406H192.703V149.189Z" fill="black"/>
<path d="M198.919 149.189H192.703V155.406H198.919V149.189Z" fill="black"/>
<path d="M211.351 149.189H205.135V155.406H211.351V149.189Z" fill="black"/>
<path d="M18.6486 155.405H12.4324V161.621H18.6486V155.405Z" fill="black"/>
<path d="M43.5135 155.405H37.2972V161.621H43.5135V155.405Z" fill="black"/>
<path d="M62.1621 155.405H55.9459V161.621H62.1621V155.405Z" fill="black"/>
<path d="M74.5945 155.405H68.3783V161.621H74.5945V155.405Z" fill="black"/>
<path d="M87.027 155.405H80.8108V161.621H87.027V155.405Z" fill="black"/>
<path d="M93.2432 155.405H87.027V161.621H93.2432V155.405Z" fill="black"/>
<path d="M111.892 155.405H105.676V161.621H111.892V155.405Z" fill="black"/>
<path d="M124.324 155.405H118.108V161.621H124.324V155.405Z" fill="black"/>
<path d="M142.973 155.405H136.757V161.621H142.973V155.405Z" fill="black"/>
<path d="M149.189 155.405H142.973V161.621H149.189V155.405Z" fill="black"/>
<path d="M161.622 155.405H155.405V161.621H161.622V155.405Z" fill="black"/>
<path d="M198.919 155.405H192.703V161.621H198.919V155.405Z" fill="black"/>
<path d="M205.135 155.405H198.919V161.621H205.135V155.405Z" fill="black"/>
<path d="M18.6486 161.622H12.4324V167.838H18.6486V161.622Z" fill="black"/>
<path d="M31.081 161.622H24.8647V167.838H31.081V161.622Z" fill="black"/>
<path d="M37.2973 161.622H31.0811V167.838H37.2973V161.622Z" fill="black"/>
<path d="M55.9458 161.622H49.7296V167.838H55.9458V161.622Z" fill="black"/>
<path d="M62.1621 161.622H55.9459V167.838H62.1621V161.622Z" fill="black"/>
<path d="M68.3783 161.622H62.1621V167.838H68.3783V161.622Z" fill="black"/>
<path d="M74.5945 161.622H68.3783V167.838H74.5945V161.622Z" fill="black"/>
<path d="M105.676 161.622H99.4594V167.838H105.676V161.622Z" fill="black"/>
<path d="M118.108 161.622H111.892V167.838H118.108V161.622Z" fill="black"/>
<path d="M130.54 161.622H124.324V167.838H130.54V161.622Z" fill="black"/>
<path d="M155.405 161.622H149.189V167.838H155.405V161.622Z" fill="black"/>
<path d="M161.622 161.622H155.405V167.838H161.622V161.622Z" fill="black"/>
<path d="M167.838 161.622H161.622V167.838H167.838V161.622Z" fill="black"/>
<path d="M174.054 161.622H167.838V167.838H174.054V161.622Z" fill="black"/>
<path d="M180.27 161.622H174.054V167.838H180.27V161.622Z" fill="black"/>
<path d="M186.486 161.622H180.27V167.838H186.486V161.622Z" fill="black"/>
<path d="M192.703 161.622H186.486V167.838H192.703V161.622Z" fill="black"/>
<path d="M198.919 161.622H192.703V167.838H198.919V161.622Z" fill="black"/>
<path d="M211.351 161.622H205.135V167.838H211.351V161.622Z" fill="black"/>
<path d="M68.3783 167.838H62.1621V174.054H68.3783V167.838Z" fill="black"/>
<path d="M74.5945 167.838H68.3783V174.054H74.5945V167.838Z" fill="black"/>
<path d="M80.8107 167.838H74.5945V174.054H80.8107V167.838Z" fill="black"/>
<path d="M87.027 167.838H80.8108V174.054H87.027V167.838Z" fill="black"/>
<path d="M93.2432 167.838H87.027V174.054H93.2432V167.838Z" fill="black"/>
<path d="M99.4594 167.838H93.2432V174.054H99.4594V167.838Z" fill="black"/>
<path d="M118.108 167.838H111.892V174.054H118.108V167.838Z" fill="black"/>
<path d="M124.324 167.838H118.108V174.054H124.324V167.838Z" fill="black"/>
<path d="M130.54 167.838H124.324V174.054H130.54V167.838Z" fill="black"/>
<path d="M136.757 167.838H130.541V174.054H136.757V167.838Z" fill="black"/>
<path d="M161.622 167.838H155.405V174.054H161.622V167.838Z" fill="black"/>
<path d="M167.838 167.838H161.622V174.054H167.838V167.838Z" fill="black"/>
<path d="M192.703 167.838H186.486V174.054H192.703V167.838Z" fill="black"/>
<path d="M198.919 167.838H192.703V174.054H198.919V167.838Z" fill="black"/>
<path d="M211.351 167.838H205.135V174.054H211.351V167.838Z" fill="black"/>
<path d="M217.568 167.838H211.351V174.054H217.568V167.838Z" fill="black"/>
<path d="M80.8107 174.055H74.5945V180.271H80.8107V174.055Z" fill="black"/>
<path d="M87.027 174.055H80.8108V180.271H87.027V174.055Z" fill="black"/>
<path d="M105.676 174.055H99.4594V180.271H105.676V174.055Z" fill="black"/>
<path d="M118.108 174.055H111.892V180.271H118.108V174.055Z" fill="black"/>
<path d="M124.324 174.055H118.108V180.271H124.324V174.055Z" fill="black"/>
<path d="M155.405 174.055H149.189V180.271H155.405V174.055Z" fill="black"/>
<path d="M161.622 174.055H155.405V180.271H161.622V174.055Z" fill="black"/>
<path d="M167.838 174.055H161.622V180.271H167.838V174.055Z" fill="black"/>
<path d="M180.27 174.055H174.054V180.271H180.27V174.055Z" fill="black"/>
<path d="M192.703 174.055H186.486V180.271H192.703V174.055Z" fill="black"/>
<path d="M211.351 174.055H205.135V180.271H211.351V174.055Z" fill="black"/>
<path d="M74.5945 180.271H68.3783V186.487H74.5945V180.271Z" fill="black"/>
<path d="M80.8107 180.271H74.5945V186.487H80.8107V180.271Z" fill="black"/>
<path d="M111.892 180.271H105.676V186.487H111.892V180.271Z" fill="black"/>
<path d="M118.108 180.271H111.892V186.487H118.108V180.271Z" fill="black"/>
<path d="M124.324 180.271H118.108V186.487H124.324V180.271Z" fill="black"/>
<path d="M130.54 180.271H124.324V186.487H130.54V180.271Z" fill="black"/>
<path d="M161.622 180.271H155.405V186.487H161.622V180.271Z" fill="black"/>
<path d="M167.838 180.271H161.622V186.487H167.838V180.271Z" fill="black"/>
<path d="M192.703 180.271H186.486V186.487H192.703V180.271Z" fill="black"/>
<path d="M198.919 180.271H192.703V186.487H198.919V180.271Z" fill="black"/>
<path d="M205.135 180.271H198.919V186.487H205.135V180.271Z" fill="black"/>
<path d="M211.351 180.271H205.135V186.487H211.351V180.271Z" fill="black"/>
<path d="M217.568 180.271H211.351V186.487H217.568V180.271Z" fill="black"/>
<path d="M68.3783 186.486H62.1621V192.703H68.3783V186.486Z" fill="black"/>
<path d="M80.8107 186.486H74.5945V192.703H80.8107V186.486Z" fill="black"/>
<path d="M87.027 186.486H80.8108V192.703H87.027V186.486Z" fill="black"/>
<path d="M99.4594 186.486H93.2432V192.703H99.4594V186.486Z" fill="black"/>
<path d="M111.892 186.486H105.676V192.703H111.892V186.486Z" fill="black"/>
<path d="M124.324 186.486H118.108V192.703H124.324V186.486Z" fill="black"/>
<path d="M149.189 186.486H142.973V192.703H149.189V186.486Z" fill="black"/>
<path d="M155.405 186.486H149.189V192.703H155.405V186.486Z" fill="black"/>
<path d="M167.838 186.486H161.622V192.703H167.838V186.486Z" fill="black"/>
<path d="M174.054 186.486H167.838V192.703H174.054V186.486Z" fill="black"/>
<path d="M180.27 186.486H174.054V192.703H180.27V186.486Z" fill="black"/>
<path d="M186.486 186.486H180.27V192.703H186.486V186.486Z" fill="black"/>
<path d="M192.703 186.486H186.486V192.703H192.703V186.486Z" fill="black"/>
<path d="M211.351 186.486H205.135V192.703H211.351V186.486Z" fill="black"/>
<path d="M217.568 186.486H211.351V192.703H217.568V186.486Z" fill="black"/>
<path d="M68.3783 192.703H62.1621V198.919H68.3783V192.703Z" fill="black"/>
<path d="M74.5945 192.703H68.3783V198.919H74.5945V192.703Z" fill="black"/>
<path d="M80.8107 192.703H74.5945V198.919H80.8107V192.703Z" fill="black"/>
<path d="M87.027 192.703H80.8108V198.919H87.027V192.703Z" fill="black"/>
<path d="M93.2432 192.703H87.027V198.919H93.2432V192.703Z" fill="black"/>
<path d="M111.892 192.703H105.676V198.919H111.892V192.703Z" fill="black"/>
<path d="M136.757 192.703H130.541V198.919H136.757V192.703Z" fill="black"/>
<path d="M149.189 192.703H142.973V198.919H149.189V192.703Z" fill="black"/>
<path d="M161.622 192.703H155.405V198.919H161.622V192.703Z" fill="black"/>
<path d="M174.054 192.703H167.838V198.919H174.054V192.703Z" fill="black"/>
<path d="M192.703 192.703H186.486V198.919H192.703V192.703Z" fill="black"/>
<path d="M205.135 192.703H198.919V198.919H205.135V192.703Z" fill="black"/>
<path d="M217.568 192.703H211.351V198.919H217.568V192.703Z" fill="black"/>
<path d="M68.3783 198.919H62.1621V205.135H68.3783V198.919Z" fill="black"/>
<path d="M74.5945 198.919H68.3783V205.135H74.5945V198.919Z" fill="black"/>
<path d="M80.8107 198.919H74.5945V205.135H80.8107V198.919Z" fill="black"/>
<path d="M93.2432 198.919H87.027V205.135H93.2432V198.919Z" fill="black"/>
<path d="M105.676 198.919H99.4594V205.135H105.676V198.919Z" fill="black"/>
<path d="M111.892 198.919H105.676V205.135H111.892V198.919Z" fill="black"/>
<path d="M118.108 198.919H111.892V205.135H118.108V198.919Z" fill="black"/>
<path d="M130.54 198.919H124.324V205.135H130.54V198.919Z" fill="black"/>
<path d="M136.757 198.919H130.541V205.135H136.757V198.919Z" fill="black"/>
<path d="M142.973 198.919H136.757V205.135H142.973V198.919Z" fill="black"/>
<path d="M149.189 198.919H142.973V205.135H149.189V198.919Z" fill="black"/>
<path d="M155.405 198.919H149.189V205.135H155.405V198.919Z" fill="black"/>
<path d="M161.622 198.919H155.405V205.135H161.622V198.919Z" fill="black"/>
<path d="M174.054 198.919H167.838V205.135H174.054V198.919Z" fill="black"/>
<path d="M180.27 198.919H174.054V205.135H180.27V198.919Z" fill="black"/>
<path d="M205.135 198.919H198.919V205.135H205.135V198.919Z" fill="black"/>
<path d="M74.5945 205.136H68.3783V211.352H74.5945V205.136Z" fill="black"/>
<path d="M80.8107 205.136H74.5945V211.352H80.8107V205.136Z" fill="black"/>
<path d="M93.2432 205.136H87.027V211.352H93.2432V205.136Z" fill="black"/>
<path d="M99.4594 205.136H93.2432V211.352H99.4594V205.136Z" fill="black"/>
<path d="M105.676 205.136H99.4594V211.352H105.676V205.136Z" fill="black"/>
<path d="M124.324 205.136H118.108V211.352H124.324V205.136Z" fill="black"/>
<path d="M130.54 205.136H124.324V211.352H130.54V205.136Z" fill="black"/>
<path d="M161.622 205.136H155.405V211.352H161.622V205.136Z" fill="black"/>
<path d="M174.054 205.136H167.838V211.352H174.054V205.136Z" fill="black"/>
<path d="M186.486 205.136H180.27V211.352H186.486V205.136Z" fill="black"/>
<path d="M205.135 205.136H198.919V211.352H205.135V205.136Z" fill="black"/>
<path d="M74.5945 211.352H68.3783V217.568H74.5945V211.352Z" fill="black"/>
<path d="M105.676 211.352H99.4594V217.568H105.676V211.352Z" fill="black"/>
<path d="M124.324 211.352H118.108V217.568H124.324V211.352Z" fill="black"/>
<path d="M136.757 211.352H130.541V217.568H136.757V211.352Z" fill="black"/>
<path d="M142.973 211.352H136.757V217.568H142.973V211.352Z" fill="black"/>
<path d="M161.622 211.352H155.405V217.568H161.622V211.352Z" fill="black"/>
<path d="M167.838 211.352H161.622V217.568H167.838V211.352Z" fill="black"/>
<path d="M211.351 211.352H205.135V217.568H211.351V211.352Z" fill="black"/>
<path d="M49.4189 12.4326H18.9594H12.4324V18.9596V49.4191V55.9461H18.9594H49.4189H55.9459V49.4191V18.9596V12.4326H49.4189ZM49.4189 49.4191H18.9594V18.9596H49.4189V49.4191Z" fill="black"/>
<path d="M211.04 12.4326H180.581H174.054V18.9596V49.4191V55.9461H180.581H211.04H217.567V49.4191V18.9596V12.4326H211.04ZM211.04 49.4191H180.581V18.9596H211.04V49.4191Z" fill="black"/>
<path d="M49.4189 174.055H18.9594H12.4324V180.582V211.041V217.568H18.9594H49.4189H55.9459V211.041V180.582V174.055H49.4189ZM49.4189 211.041H18.9594V180.582H49.4189V211.041Z" fill="black"/>
<path d="M43.5134 24.8652H24.8647V43.5139H43.5134V24.8652Z" fill="black"/>
<path d="M205.135 24.8652H186.486V43.5139H205.135V24.8652Z" fill="black"/>
<path d="M43.5134 186.486H24.8647V205.135H43.5134V186.486Z" fill="black"/>
<rect x="82" y="82" width="66.44" height="66.44" rx="33.22" fill="white"/>
<path d="M115.22 87.5371C99.9388 87.5371 87.5366 99.9392 87.5366 115.22C87.5366 130.502 99.9388 142.904 115.22 142.904C130.501 142.904 142.903 130.502 142.903 115.22C142.903 99.9392 130.501 87.5371 115.22 87.5371ZM115.22 95.8421C119.815 95.8421 123.525 99.5517 123.525 104.147C123.525 108.743 119.815 112.452 115.22 112.452C110.625 112.452 106.915 108.743 106.915 104.147C106.915 99.5517 110.625 95.8421 115.22 95.8421ZM115.22 135.152C108.299 135.152 102.181 131.609 98.61 126.238C98.693 120.729 109.683 117.712 115.22 117.712C120.729 117.712 131.747 120.729 131.83 126.238C128.259 131.609 122.141 135.152 115.22 135.152Z" fill="#F2495C"/>
</g>
<defs>
<clipPath id="clip0_398_62852">
<rect width="230" height="230" rx="8" fill="white"/>
</clipPath>
</defs>
</svg>
